<svg version="1.1" id="Layer_1" xmlns="http://www.w3.org/2000/svg" xmlns:xlink="http://www.w3.org/1999/xlink" x="0px" y="0px" viewBox="0 0 250.1 59.1" xml:space="preserve"><g><path d="M41,35.3c0-1-0.9-2.3-2-3L2,11.3c-1.1-0.6-2-0.3-2,0.7l0,15.5c0,1,0.9,2.3,2,2.9l36,13.3
		c0.8,0.3,1.8,0.3,2.4-0.3c0.6-0.6,0.6-1.8,0.6-2.1L41,35.3z" style="fill: rgb(245, 156, 39);"></path><path d="M36.4,49.8l-34-14.3c-1.3-0.7-2.4-0.1-2.4,1.4L0,44c0,1.5,1,3.4,2.4,4.1l15.9,10.5
		c1.3,0.7,3.4,0.7,4.7,0l13.4-6.1C37.7,51.7,37.7,50.5,36.4,49.8z" style="fill: rgb(245, 156, 39);"></path><path d="M6.7,8.3l31.9,16.7c1.3,0.7,2.4,0.1,2.4-1.4l0-8.5c0-1.5-1-3.4-2.4-4.1L23.1,0.6
		c-0.1-0.1-0.2-0.1-0.3-0.2c-1.3-0.7-3.3-0.6-4.5,0.1L7,5.5C6.8,5.6,6.6,5.7,6.4,5.9C5.4,6.6,5.6,7.7,6.7,8.3z" style="fill: rgb(245, 156, 39);"></path><g id="logoText"><path d="M70.8,27.7c-1.2-0.6-2.7-1.2-4.5-1.7c-1.6-0.5-2.7-0.9-3.5-1.4c-0.7-0.4-1.1-1.1-1.1-2
			c0-0.9,0.3-1.6,0.9-2.1c0.6-0.5,1.6-0.8,2.9-0.8c2.1,0,4.3,0.8,6.5,2.5l2-6.9c-1.1-0.9-2.5-1.6-4-2.1c-1.5-0.5-3-0.7-4.6-0.7
			c-2.3,0-4.2,0.5-5.7,1.4c-1.6,0.9-2.7,2.2-3.5,3.8c-0.8,1.6-1.2,3.4-1.2,5.4c0,2.3,0.4,4.1,1.3,5.4c0.9,1.3,1.9,2.3,3.1,2.9
			c1.2,0.6,2.7,1.2,4.4,1.7c1.6,0.5,2.8,1,3.5,1.4c0.7,0.5,1.1,1.1,1.1,2.1c0,1.8-1.3,2.7-3.8,2.7c-1.3,0-2.7-0.3-4.1-0.9
			S58,37.1,57,36.1l-2.2,6.8c1.1,1.1,2.6,2,4.4,2.6c1.8,0.7,3.6,1,5.5,1c2.2,0,4.1-0.5,5.7-1.4c1.6-1,2.7-2.2,3.5-3.8
			c0.8-1.6,1.2-3.4,1.2-5.3c0-2.3-0.4-4.1-1.3-5.4C73,29.2,71.9,28.3,70.8,27.7z" style="fill: rgb(16, 24, 32);"></path><path d="M86.3,39.4c-0.6,0-1-0.3-1.4-0.8c-0.3-0.5-0.5-1.2-0.5-2.1v-8.4h4.2v-6.6h-4.2v-6.6H78v6.6h-2.7v6.6
			H78v8.5c0,3.2,0.6,5.6,1.9,7.2s3.1,2.4,5.5,2.4c0.9,0,1.7-0.1,2.5-0.4s1.4-0.6,2-1.1l-1.6-6.2C87.7,39.2,87,39.4,86.3,39.4z" style="fill: rgb(16, 24, 32);"></path><path d="M97.7,23.6v-3h-6.1v25.3H98V34.2c0-2.1,0.4-3.7,1.2-4.7s1.8-1.5,3.2-1.5c0.4,0,0.9,0,1.4,0.1v-8
			c-1.3,0-2.5,0.3-3.6,0.9C99.2,21.6,98.3,22.4,97.7,23.6z" style="fill: rgb(16, 24, 32);"></path><path d="M119.3,21.7c-1.5-1-3.1-1.6-4.9-1.6c-1.9,0-3.6,0.6-5.1,1.7c-1.5,1.1-2.7,2.7-3.6,4.7
			c-0.9,2-1.3,4.2-1.3,6.7c0,2.5,0.4,4.8,1.3,6.8c0.9,2,2.1,3.6,3.7,4.7c1.6,1.1,3.5,1.7,5.6,1.7c3.4,0,6-1.4,7.8-4.1l-3.4-4.9
			c-0.7,0.8-1.3,1.3-1.9,1.7c-0.6,0.3-1.4,0.5-2.3,0.5c-1.2,0-2.1-0.4-2.9-1.1s-1.3-1.7-1.6-3H124c0.1-1.4,0.1-2.1,0.1-2.2
			c0-2.7-0.4-5.1-1.3-7C122,24.2,120.8,22.7,119.3,21.7z M110.7,30.8c0.2-1.3,0.6-2.4,1.3-3.2c0.7-0.8,1.5-1.2,2.5-1.2
			s1.8,0.4,2.5,1.2c0.7,0.8,1.1,1.8,1.3,3.2H110.7z" style="fill: rgb(16, 24, 32);"></path><path d="M133.7,20.1c-1.5,0-2.9,0.3-4.4,0.8c-1.4,0.5-2.7,1.2-3.7,2.2l2.2,6c0.6-0.7,1.4-1.2,2.3-1.6
			c0.9-0.4,1.8-0.6,2.7-0.6c2.5,0,3.8,1.3,3.9,4H133c-2.8,0-4.8,0.7-6.1,2c-1.3,1.3-2,3.2-2,5.6c0,1.5,0.3,2.8,0.8,4
			c0.5,1.2,1.3,2.1,2.3,2.8c1,0.7,2.3,1,3.7,1c2.7,0,4.5-1.2,5.4-3.7v3.3h5.9V31.8c0-4-0.8-6.9-2.4-8.8
			C139,21.1,136.7,20.1,133.7,20.1z M136.6,37.7c-0.2,1-0.7,1.7-1.2,2.2c-0.6,0.5-1.2,0.7-1.9,0.7c-0.7,0-1.3-0.2-1.7-0.7
			c-0.4-0.5-0.6-1.1-0.6-1.9c0-1.7,0.9-2.6,2.8-2.6h2.8V37.7z" style="fill: rgb(16, 24, 32);"></path><path d="M168.1,20.1c-1.3,0-2.5,0.3-3.6,1s-2,1.7-2.7,2.9c-0.6-1.3-1.4-2.3-2.5-3s-2.2-1-3.4-1
			c-1.1,0-2.1,0.3-3,0.8c-0.9,0.5-1.7,1.3-2.4,2.3v-2.7h-6.1v25.3h6.4V33.3c0-1.9,0.3-3.3,0.9-4.3c0.6-0.9,1.4-1.4,2.4-1.4
			c1.8,0,2.8,1.7,2.8,5.2v13h6.4V33.3c0-1.9,0.3-3.3,0.9-4.3c0.6-0.9,1.4-1.4,2.3-1.4c0.9,0,1.6,0.4,2,1.3c0.5,0.8,0.7,2.2,0.7,3.9
			v13h6.4V31.4c0-3.8-0.7-6.6-2-8.5C172.1,21,170.3,20.1,168.1,20.1z" style="fill: rgb(16, 24, 32);"></path></g><path d="M189.6,12.8h-2l-10.9,32.9l-0.1,0.3h2.3l3-9.2h13.4l3,9.1l0,0.1h2.3l-10.9-33L189.6,12.8z
		 M182.7,34.3l5.9-18.1l5.9,18.1H182.7z" style="fill: rgb(245, 156, 39);"></path><polygon points="226.6,12.8 224.9,12.8 214.5,37.7 204.2,12.9 204.1,12.8 202.3,12.8 202.3,45.9 204.4,45.9 
		204.4,18.7 213.9,41.4 213.9,41.5 215,41.5 224.6,18.6 224.6,45.7 224.6,45.9 226.7,45.9 226.6,12.9 	" style="fill: rgb(245, 156, 39);"></polygon><path d="M247.9,40.6c-1.7,1.9-3.9,2.9-6.5,2.9c-2,0-3.8-0.6-5.3-1.9c-1.6-1.2-2.8-3-3.8-5.1
		c-0.9-2.2-1.4-4.6-1.4-7.2c0-2.7,0.5-5.1,1.4-7.3c0.9-2.2,2.2-3.9,3.8-5.1c1.6-1.2,3.4-1.8,5.3-1.8c1.4,0,2.8,0.3,4,0.9
		c1.2,0.6,2.3,1.6,3.2,2.9l0.2,0.2l1.3-1.9l-0.1-0.1c-1-1.5-2.3-2.6-3.8-3.4c-1.5-0.8-3.1-1.2-4.8-1.2c-2.4,0-4.6,0.7-6.5,2.2
		c-1.9,1.4-3.4,3.5-4.5,6c-1.1,2.5-1.6,5.4-1.6,8.6c0,3.2,0.5,6,1.6,8.6c1.1,2.5,2.6,4.6,4.5,6c1.9,1.5,4.1,2.2,6.4,2.2
		c1.7,0,3.3-0.4,4.7-1.1c1.5-0.7,2.8-1.8,3.8-3.2l0-0.1V29.3h-2V40.6z" style="fill: rgb(245, 156, 39);"></path></g></svg>